<?xml version="1.0" encoding="UTF-8"?>
<svg id="Layer_1" xmlns="http://www.w3.org/2000/svg" version="1.1" viewBox="0 0 800 800">
  <!-- Generator: Adobe Illustrator 29.8.2, SVG Export Plug-In . SVG Version: 2.1.1 Build 3)  -->
  <defs>
    <style>
      .st0 {
        fill: #922e30;
      }
    </style>
  </defs>
  <path class="st0" d="M671.6,355h-4c-4.2-17.2-12.6-43-29.1-68.8-24.8-38.6-72.4-84.2-160.3-89.5-8.6-23.8-23.7-45.2-43.6-61.1-24.4-19.6-55.1-30.3-86.4-30.3h-104.8c-76.2,0-138.1,62-138.1,138.1v428.3c0,12.7,10.3,23.1,23.1,23.1s23.1-10.3,23.1-23.1V243.3c0-50.8,41.3-92.1,92.1-92.1h104.8c21.2,0,41.1,7,57.6,20.2,9.2,7.4,16.8,16.5,22.6,26.6-78.1,9.4-121.9,51.8-145.4,88-16.8,25.9-25.4,51.7-29.7,69h-4.1c-12.7,0-23.1,10.3-23.1,23.1s10.3,23.1,23.1,23.1h422.5c12.7,0,23.1-10.3,23.1-23.1s-10.3-23.1-23.1-23.1h0ZM322.5,309.7c29.7-44.8,76.3-67.5,138.5-67.5s108.5,22.7,137.9,67.5c10.5,16.1,17.1,32.4,21.1,45.4h-318.8c4.1-12.9,10.7-29.2,21.4-45.3h0ZM580.6,473.7c0,.8.1,1.5.1,2.3s0,1.5-.1,2.3c0,.7-.2,1.5-.3,2.2s-.3,1.4-.5,2.1c-.2.7-.5,1.4-.8,2.1s-.6,1.4-1,2c-.3.7-.7,1.3-1.2,2-.4.7-.8,1.3-1.4,1.8-.5.6-1,1.2-1.5,1.7s-1.1,1-1.7,1.5-1.2.9-1.8,1.4c-.6.4-1.3.8-2,1.2-.7.3-1.4.7-2,1-.7.3-1.4.5-2.1.8-.7.3-1.4.4-2.1.5s-1.5.3-2.2.3c-.8,0-1.5.1-2.3.1s-1.5,0-2.3-.1c-.7,0-1.5-.2-2.2-.3s-1.4-.3-2.1-.5c-.7-.2-1.4-.5-2.1-.8-.7-.3-1.4-.6-2-1-.7-.3-1.3-.7-2-1.2-.7-.4-1.3-.8-1.8-1.4-.6-.5-1.2-1-1.7-1.5s-1-1.1-1.5-1.7-.9-1.2-1.4-1.8c-.4-.6-.8-1.3-1.2-2-.3-.7-.7-1.4-1-2-.3-.7-.5-1.4-.8-2.1-.2-.7-.4-1.4-.5-2.1s-.3-1.5-.3-2.2-.1-1.5-.1-2.3,0-1.5.1-2.3c0-.7.2-1.5.3-2.2s.3-1.4.5-2.1c.2-.7.5-1.4.8-2.1.3-.7.6-1.4,1-2,.3-.7.7-1.3,1.2-2,.4-.7.8-1.3,1.4-1.8.5-.6,1-1.2,1.5-1.7s1.1-1,1.7-1.5,1.2-.9,1.8-1.4c.6-.4,1.3-.8,2-1.2.7-.3,1.4-.7,2-1,.7-.3,1.4-.5,2.1-.8.7-.2,1.4-.4,2.1-.5s1.5-.3,2.2-.3c1.5-.1,3-.1,4.5,0,.7,0,1.5.2,2.2.3s1.4.3,2.1.5c.7.2,1.4.5,2.1.8.7.3,1.4.6,2,1,.7.3,1.3.7,2,1.2.7.4,1.3.8,1.8,1.4.6.5,1.2,1,1.7,1.5s1,1.1,1.5,1.7.9,1.2,1.4,1.8c.4.6.8,1.3,1.2,2,.3.7.7,1.4,1,2,.3.7.5,1.4.8,2.1.2.7.4,1.4.5,2.1s.3,1.5.3,2.2h0ZM482.8,473.7c0,.8.1,1.5.1,2.3s0,1.5-.1,2.3c0,.7-.2,1.5-.3,2.2s-.3,1.4-.5,2.1c-.2.7-.5,1.4-.8,2.1s-.6,1.4-1,2c-.3.7-.7,1.3-1.2,2-.4.7-.8,1.3-1.4,1.8-.5.6-1,1.2-1.5,1.7s-1.1,1-1.7,1.5-1.2.9-1.8,1.4c-.6.4-1.3.8-2,1.2-.7.3-1.4.7-2,1-.7.3-1.4.5-2.1.8-.7.3-1.4.4-2.1.5s-1.5.3-2.2.3c-.8,0-1.5.1-2.3.1s-1.5,0-2.3-.1c-.7,0-1.5-.2-2.2-.3s-1.4-.3-2.1-.5c-.7-.2-1.4-.5-2.1-.8-.7-.3-1.4-.6-2-1-.7-.3-1.3-.7-2-1.2-.7-.4-1.3-.8-1.8-1.4-.6-.5-1.2-1-1.7-1.5s-1-1.1-1.5-1.7-.9-1.2-1.4-1.8c-.4-.6-.8-1.3-1.2-2-.3-.7-.7-1.4-1-2-.3-.7-.5-1.4-.8-2.1-.2-.7-.4-1.4-.5-2.1s-.3-1.5-.3-2.2c0-.8-.1-1.5-.1-2.3s0-1.5.1-2.3c0-.7.2-1.5.3-2.2s.3-1.4.5-2.1c.2-.7.5-1.4.8-2.1.3-.7.6-1.4,1-2,.3-.7.7-1.3,1.2-2,.4-.7.8-1.3,1.4-1.8.5-.6,1-1.2,1.5-1.7s1.1-1,1.7-1.5,1.2-.9,1.8-1.4c.6-.4,1.3-.8,2-1.2.7-.3,1.4-.7,2-1,.7-.3,1.4-.5,2.1-.8.7-.2,1.4-.4,2.1-.5s1.5-.3,2.2-.3c1.5-.1,3-.1,4.5,0,.7,0,1.5.2,2.2.3s1.4.3,2.1.5c.7.2,1.4.5,2.1.8.7.3,1.4.6,2,1,.7.3,1.3.7,2,1.2.7.4,1.3.8,1.8,1.4.6.5,1.2,1,1.7,1.5s1,1.1,1.5,1.7.9,1.2,1.4,1.8c.4.6.8,1.3,1.2,2,.3.7.7,1.4,1,2,.3.7.5,1.4.8,2.1.2.7.4,1.4.5,2.1s.3,1.5.3,2.2h0ZM384.9,473.7c0,.8.1,1.5.1,2.3s0,1.5-.1,2.3c0,.7-.2,1.5-.3,2.2s-.3,1.4-.5,2.1c-.2.7-.5,1.4-.8,2.1s-.6,1.4-1,2c-.3.7-.7,1.3-1.2,2-.4.7-.8,1.3-1.4,1.8-.5.6-1,1.2-1.5,1.7s-1.1,1-1.7,1.5-1.2.9-1.8,1.4c-.6.4-1.3.8-2,1.2-.7.3-1.4.7-2,1-.7.3-1.4.5-2.1.8-.7.3-1.4.4-2.1.5s-1.5.3-2.2.3c-.8,0-1.5.1-2.3.1s-1.5,0-2.3-.1c-.7,0-1.5-.2-2.2-.3s-1.4-.3-2.1-.5c-.7-.2-1.4-.5-2.1-.8-.7-.3-1.4-.6-2-1-.7-.3-1.3-.7-2-1.2-.7-.4-1.3-.8-1.8-1.4-.6-.5-1.2-1-1.7-1.5-.5-.5-1-1.1-1.5-1.7s-.9-1.2-1.4-1.8c-.4-.6-.8-1.3-1.2-2-.3-.7-.7-1.4-1-2-.3-.7-.5-1.4-.8-2.1-.2-.7-.4-1.4-.5-2.1s-.3-1.5-.3-2.2-.1-1.5-.1-2.3,0-1.5.1-2.3c0-.7.2-1.5.3-2.2s.3-1.4.5-2.1c.2-.7.5-1.4.8-2.1.3-.7.6-1.4,1-2,.3-.7.7-1.3,1.2-2,.4-.7.8-1.3,1.4-1.8.5-.6,1-1.2,1.5-1.7.5-.5,1.1-1,1.7-1.5s1.2-.9,1.8-1.4c.6-.4,1.3-.8,2-1.2.7-.3,1.4-.7,2-1,.7-.3,1.4-.5,2.1-.8.7-.2,1.4-.4,2.1-.5s1.5-.3,2.2-.3c1.5-.1,3-.1,4.5,0,.7,0,1.5.2,2.2.3s1.4.3,2.1.5c.7.2,1.4.5,2.1.8.7.3,1.4.6,2,1,.7.3,1.3.7,2,1.2.7.4,1.3.8,1.8,1.4.6.5,1.2,1,1.7,1.5s1,1.1,1.5,1.7.9,1.2,1.4,1.8c.4.6.8,1.3,1.2,2,.3.7.7,1.4,1,2,.3.7.5,1.4.8,2.1.2.7.4,1.4.5,2.1s.3,1.5.3,2.2h0ZM580.6,571.5c0,.8.1,1.5.1,2.3s0,1.5-.1,2.3c0,.7-.2,1.5-.3,2.2s-.3,1.4-.5,2.1c-.2.7-.5,1.4-.8,2.1s-.6,1.4-1,2c-.3.7-.7,1.3-1.2,2-.4.7-.8,1.3-1.4,1.8-.5.6-1,1.2-1.5,1.7s-1.1,1-1.7,1.5-1.2.9-1.8,1.4c-.6.4-1.3.8-2,1.2-.7.3-1.4.7-2,1-.7.3-1.4.5-2.1.8-.7.3-1.4.4-2.1.5s-1.5.3-2.2.3c-.8,0-1.5.1-2.3.1s-1.5,0-2.3-.1c-.7,0-1.5-.2-2.2-.3s-1.4-.3-2.1-.5c-.7-.2-1.4-.5-2.1-.8-.7-.3-1.4-.6-2-1-.7-.3-1.3-.7-2-1.2-.7-.4-1.3-.8-1.8-1.4-.6-.5-1.2-1-1.7-1.5s-1-1.1-1.5-1.7-.9-1.2-1.4-1.8c-.4-.6-.8-1.3-1.2-2-.3-.7-.7-1.4-1-2-.3-.7-.5-1.4-.8-2.1-.2-.7-.4-1.4-.5-2.1s-.3-1.5-.3-2.2-.1-1.5-.1-2.3,0-1.5.1-2.3c0-.7.2-1.5.3-2.2s.3-1.4.5-2.1c.2-.7.5-1.4.8-2.1.3-.7.6-1.4,1-2,.3-.7.7-1.3,1.2-2,.4-.7.8-1.3,1.4-1.8.5-.6,1-1.2,1.5-1.7s1.1-1,1.7-1.5,1.2-.9,1.8-1.4c.6-.4,1.3-.8,2-1.2.7-.3,1.4-.7,2-1,.7-.3,1.4-.5,2.1-.8.7-.2,1.4-.4,2.1-.5s1.5-.3,2.2-.3c1.5-.1,3-.1,4.5,0,.7,0,1.5.2,2.2.3s1.4.3,2.1.5c.7.2,1.4.5,2.1.8.7.3,1.4.6,2,1,.7.3,1.3.7,2,1.2.7.4,1.3.8,1.8,1.4.6.5,1.2,1,1.7,1.5s1,1.1,1.5,1.7.9,1.2,1.4,1.8c.4.6.8,1.3,1.2,2,.3.7.7,1.4,1,2,.3.7.5,1.4.8,2.1.2.7.4,1.4.5,2.1s.3,1.5.3,2.2h0ZM482.8,571.5c0,.8.1,1.5.1,2.3s0,1.5-.1,2.3c0,.7-.2,1.5-.3,2.2s-.3,1.4-.5,2.1c-.2.7-.5,1.4-.8,2.1s-.6,1.4-1,2c-.3.7-.7,1.3-1.2,2-.4.7-.8,1.3-1.4,1.8-.5.6-1,1.2-1.5,1.7s-1.1,1-1.7,1.5-1.2.9-1.8,1.4c-.6.4-1.3.8-2,1.2-.7.3-1.4.7-2,1-.7.3-1.4.5-2.1.8-.7.3-1.4.4-2.1.5s-1.5.3-2.2.3c-.8,0-1.5.1-2.3.1s-1.5,0-2.3-.1c-.7,0-1.5-.2-2.2-.3s-1.4-.3-2.1-.5c-.7-.2-1.4-.5-2.1-.8-.7-.3-1.4-.6-2-1-.7-.3-1.3-.7-2-1.2-.7-.4-1.3-.8-1.8-1.4-.6-.5-1.2-1-1.7-1.5s-1-1.1-1.5-1.7-.9-1.2-1.4-1.8c-.4-.6-.8-1.3-1.2-2-.3-.7-.7-1.4-1-2-.3-.7-.5-1.4-.8-2.1-.2-.7-.4-1.4-.5-2.1s-.3-1.5-.3-2.2c0-.8-.1-1.5-.1-2.3s0-1.5.1-2.3c0-.7.2-1.5.3-2.2s.3-1.4.5-2.1c.2-.7.5-1.4.8-2.1.3-.7.6-1.4,1-2,.3-.7.7-1.3,1.2-2,.4-.7.8-1.3,1.4-1.8.5-.6,1-1.2,1.5-1.7s1.1-1,1.7-1.5,1.2-.9,1.8-1.4c.6-.4,1.3-.8,2-1.2.7-.3,1.4-.7,2-1,.7-.3,1.4-.5,2.1-.8.7-.2,1.4-.4,2.1-.5s1.5-.3,2.2-.3c1.5-.1,3-.1,4.5,0,.7,0,1.5.2,2.2.3s1.4.3,2.1.5c.7.2,1.4.5,2.1.8.7.3,1.4.6,2,1,.7.3,1.3.7,2,1.2.7.4,1.3.8,1.8,1.4.6.5,1.2,1,1.7,1.5s1,1.1,1.5,1.7.9,1.2,1.4,1.8c.4.6.8,1.3,1.2,2,.3.7.7,1.4,1,2,.3.7.5,1.4.8,2.1.2.7.4,1.4.5,2.1s.3,1.5.3,2.2h0ZM384.9,571.5c0,.8.1,1.5.1,2.3s0,1.5-.1,2.3c0,.7-.2,1.5-.3,2.2s-.3,1.4-.5,2.1c-.2.7-.5,1.4-.8,2.1s-.6,1.4-1,2c-.3.7-.7,1.3-1.2,2-.4.7-.8,1.3-1.4,1.8-.5.6-1,1.2-1.5,1.7s-1.1,1-1.7,1.5-1.2.9-1.8,1.4c-.6.4-1.3.8-2,1.2-.7.3-1.4.7-2,1-.7.3-1.4.5-2.1.8-.7.3-1.4.4-2.1.5s-1.5.3-2.2.3c-.8,0-1.5.1-2.3.1s-1.5,0-2.3-.1c-.7,0-1.5-.2-2.2-.3s-1.4-.3-2.1-.5c-.7-.2-1.4-.5-2.1-.8-.7-.3-1.4-.6-2-1-.7-.3-1.3-.7-2-1.2-.7-.4-1.3-.8-1.8-1.4-.6-.5-1.2-1-1.7-1.5-.5-.5-1-1.1-1.5-1.7-.5-.6-.9-1.2-1.4-1.8-.4-.6-.8-1.3-1.2-2-.3-.7-.7-1.4-1-2-.3-.7-.5-1.4-.8-2.1-.2-.7-.4-1.4-.5-2.1s-.3-1.5-.3-2.2c0-.8-.1-1.5-.1-2.3s0-1.5.1-2.3c0-.7.2-1.5.3-2.2s.3-1.4.5-2.1c.2-.7.5-1.4.8-2.1.3-.7.6-1.4,1-2,.3-.7.7-1.3,1.2-2,.4-.7.8-1.3,1.4-1.8.5-.6,1-1.2,1.5-1.7.5-.5,1.1-1,1.7-1.5s1.2-.9,1.8-1.4c.6-.4,1.3-.8,2-1.2.7-.3,1.4-.7,2-1,.7-.3,1.4-.5,2.1-.8.7-.2,1.4-.4,2.1-.5s1.5-.3,2.2-.3c1.5-.1,3-.1,4.5,0,.7,0,1.5.2,2.2.3s1.4.3,2.1.5c.7.2,1.4.5,2.1.8.7.3,1.4.6,2,1,.7.3,1.3.7,2,1.2.7.4,1.3.8,1.8,1.4.6.5,1.2,1,1.7,1.5s1,1.1,1.5,1.7.9,1.2,1.4,1.8c.4.6.8,1.3,1.2,2,.3.7.7,1.4,1,2,.3.7.5,1.4.8,2.1.2.7.4,1.4.5,2.1s.3,1.5.3,2.2h0ZM580.6,669.4c0,.8.1,1.5.1,2.3s0,1.5-.1,2.3c0,.7-.2,1.5-.3,2.2s-.3,1.5-.5,2.1c-.2.7-.5,1.4-.8,2.1s-.6,1.4-1,2c-.3.7-.7,1.3-1.2,2-.4.7-.8,1.3-1.4,1.8-.5.6-1,1.2-1.5,1.7-.5.5-1.1,1-1.7,1.5s-1.2.9-1.8,1.4c-.6.4-1.3.8-2,1.2-.7.3-1.4.7-2,1-.7.3-1.4.5-2.1.8-.7.3-1.4.4-2.1.5s-1.5.3-2.2.3c-.8,0-1.5.1-2.3.1s-1.5,0-2.3-.1c-.7,0-1.5-.2-2.2-.3s-1.4-.3-2.1-.5c-.7-.2-1.4-.5-2.1-.8-.7-.3-1.4-.6-2-1-.7-.3-1.3-.7-2-1.2-.7-.4-1.3-.8-1.8-1.4-.6-.5-1.2-1-1.7-1.5-.5-.5-1-1.1-1.5-1.7s-.9-1.2-1.4-1.8c-.4-.6-.8-1.3-1.2-2-.3-.7-.7-1.4-1-2-.3-.7-.5-1.4-.8-2.1-.2-.7-.4-1.4-.5-2.1s-.3-1.5-.3-2.2-.1-1.5-.1-2.3,0-1.5.1-2.3c0-.7.2-1.5.3-2.2s.3-1.4.5-2.1c.2-.7.5-1.4.8-2.1.3-.7.6-1.4,1-2,.3-.7.7-1.3,1.2-2,.4-.7.8-1.3,1.4-1.8.5-.6,1-1.2,1.5-1.7.5-.5,1.1-1,1.7-1.5s1.2-.9,1.8-1.4c.6-.4,1.3-.8,2-1.2.7-.3,1.4-.7,2-1,.7-.3,1.4-.5,2.1-.8.7-.2,1.4-.4,2.1-.5s1.5-.3,2.2-.3c1.5-.1,3-.1,4.5,0,.7,0,1.5.2,2.2.3s1.4.3,2.1.5c.7.2,1.4.5,2.1.8.7.3,1.4.6,2,1,.7.3,1.3.7,2,1.2.7.4,1.3.8,1.8,1.4.6.5,1.2,1,1.7,1.5.5.5,1,1.1,1.5,1.7s.9,1.2,1.4,1.8c.4.6.8,1.3,1.2,2,.3.7.7,1.4,1,2,.3.7.5,1.4.8,2.1.2.7.4,1.4.5,2.1s.3,1.5.3,2.2h0ZM482.8,669.4c0,.8.1,1.5.1,2.3s0,1.5-.1,2.3c0,.7-.2,1.5-.3,2.2s-.3,1.5-.5,2.1c-.2.7-.5,1.4-.8,2.1s-.6,1.4-1,2c-.3.7-.7,1.3-1.2,2-.4.7-.8,1.3-1.4,1.8-.5.6-1,1.2-1.5,1.7-.5.5-1.1,1-1.7,1.5s-1.2.9-1.8,1.4c-.6.4-1.3.8-2,1.2-.7.3-1.4.7-2,1-.7.3-1.4.5-2.1.8-.7.3-1.4.4-2.1.5s-1.5.3-2.2.3c-.8,0-1.5.1-2.3.1s-1.5,0-2.3-.1c-.7,0-1.5-.2-2.2-.3s-1.4-.3-2.1-.5c-.7-.2-1.4-.5-2.1-.8-.7-.3-1.4-.6-2-1-.7-.3-1.3-.7-2-1.2-.7-.4-1.3-.8-1.8-1.4-.6-.5-1.2-1-1.7-1.5-.5-.5-1-1.1-1.5-1.7s-.9-1.2-1.4-1.8c-.4-.6-.8-1.3-1.2-2-.3-.7-.7-1.4-1-2-.3-.7-.5-1.4-.8-2.1-.2-.7-.4-1.4-.5-2.1s-.3-1.5-.3-2.2c0-.8-.1-1.5-.1-2.3s0-1.5.1-2.3c0-.7.2-1.5.3-2.2s.3-1.4.5-2.1c.2-.7.5-1.4.8-2.1.3-.7.6-1.4,1-2,.3-.7.7-1.3,1.2-2,.4-.7.8-1.3,1.4-1.8.5-.6,1-1.2,1.5-1.7.5-.5,1.1-1,1.7-1.5s1.2-.9,1.8-1.4c.6-.4,1.3-.8,2-1.2.7-.3,1.4-.7,2-1,.7-.3,1.4-.5,2.1-.8.7-.2,1.4-.4,2.1-.5s1.5-.3,2.2-.3c1.5-.1,3-.1,4.5,0,.7,0,1.5.2,2.2.3s1.4.3,2.1.5c.7.2,1.4.5,2.1.8.7.3,1.4.6,2,1,.7.3,1.3.7,2,1.2.7.4,1.3.8,1.8,1.4.6.5,1.2,1,1.7,1.5.5.5,1,1.1,1.5,1.7s.9,1.2,1.4,1.8c.4.6.8,1.3,1.2,2,.3.7.7,1.4,1,2,.3.7.5,1.4.8,2.1.2.7.4,1.4.5,2.1s.3,1.5.3,2.2h0ZM384.9,669.4c0,.8.1,1.5.1,2.3s0,1.5-.1,2.3c0,.7-.2,1.5-.3,2.2s-.3,1.4-.5,2.1c-.2.7-.5,1.4-.8,2.1s-.6,1.4-1,2c-.3.7-.7,1.3-1.2,2-.4.7-.8,1.3-1.4,1.8-.5.6-1,1.2-1.5,1.7-.5.5-1.1,1-1.7,1.5s-1.2.9-1.8,1.4c-.6.4-1.3.8-2,1.2-.7.3-1.4.7-2,1-.7.3-1.4.5-2.1.8-.7.3-1.4.4-2.1.5s-1.5.3-2.2.3c-.8,0-1.5.1-2.3.1s-1.5,0-2.3-.1c-.7,0-1.5-.2-2.2-.3s-1.4-.3-2.1-.5c-.7-.2-1.4-.5-2.1-.8-.7-.3-1.4-.6-2-1-.7-.3-1.3-.7-2-1.2-.7-.4-1.3-.8-1.8-1.4-.6-.5-1.2-1-1.7-1.5-.5-.5-1-1.1-1.5-1.7s-.9-1.2-1.4-1.8c-.4-.6-.8-1.3-1.2-2-.3-.7-.7-1.4-1-2-.3-.7-.5-1.4-.8-2.1-.2-.7-.4-1.4-.5-2.1s-.3-1.5-.3-2.2c0-.8-.1-1.5-.1-2.3s0-1.5.1-2.3c0-.7.2-1.5.3-2.2s.3-1.4.5-2.1c.2-.7.5-1.4.8-2.1.3-.7.6-1.4,1-2,.3-.7.7-1.3,1.2-2,.4-.7.8-1.3,1.4-1.8.5-.6,1-1.2,1.5-1.7.5-.5,1.1-1,1.7-1.5s1.2-.9,1.8-1.4c.6-.4,1.3-.8,2-1.2.7-.3,1.4-.7,2-1,.7-.3,1.4-.5,2.1-.8.7-.2,1.4-.4,2.1-.5s1.5-.3,2.2-.3c1.5-.1,3-.1,4.5,0,.7,0,1.5.2,2.2.3s1.4.3,2.1.5c.7.2,1.4.5,2.1.8.7.3,1.4.6,2,1,.7.3,1.3.7,2,1.2.7.4,1.3.8,1.8,1.4.6.5,1.2,1,1.7,1.5.5.5,1,1.1,1.5,1.7s.9,1.2,1.4,1.8c.4.6.8,1.3,1.2,2,.3.7.7,1.4,1,2,.3.7.5,1.4.8,2.1.2.7.4,1.4.5,2.1s.3,1.5.3,2.2h0Z"/>
</svg>