<?xml version="1.0" encoding="UTF-8"?>
<svg id="Layer_1" xmlns="http://www.w3.org/2000/svg" version="1.1" viewBox="0 0 800 800">
  <!-- Generator: Adobe Illustrator 29.8.2, SVG Export Plug-In . SVG Version: 2.1.1 Build 3)  -->
  <defs>
    <style>
      .st0 {
        fill: #922e30;
      }
    </style>
  </defs>
  <path class="st0" d="M182,418.2h36.3v36.3h-36.3v-36.3Z"/>
  <path class="st0" d="M212.5,624.1c3.9-3.6,96.7-90.1,96.7-187.7s-48.9-109-109-109-109,48.9-109,109c0,98.3,92.8,184.2,96.7,187.8l12.3,11.2,12.3-11.3ZM127.5,436.3c0-40.1,32.6-72.7,72.7-72.7s72.7,32.6,72.7,72.7c0,62.4-49.2,123-72.7,148.5-23.5-25.3-72.6-85.7-72.6-148.5Z"/>
  <path class="st0" d="M581.6,182h36.3v36.3h-36.3v-36.3Z"/>
  <path class="st0" d="M587.6,388l12.3,11.2,12.3-11.3c3.9-3.6,96.7-90.1,96.7-187.7s-48.9-109-109-109-109,48.9-109,109c0,98.3,92.8,184.2,96.7,187.8h0ZM599.8,127.5c40.1,0,72.7,32.6,72.7,72.7,0,62.4-49.2,123-72.7,148.5-23.5-25.3-72.6-85.7-72.6-148.5s32.6-72.7,72.7-72.7Z"/>
  <path class="st0" d="M627.1,545.3h-208.9c-20,0-36.3-16.3-36.3-36.3s16.3-36.3,36.3-36.3h181.6v-36.3h-181.6c-40.1,0-72.7,32.6-72.7,72.7s32.6,72.7,72.7,72.7h208.9c25,0,45.4,20.4,45.4,45.4s-20.4,45.4-45.4,45.4H200.2v36.3h426.9c45.1,0,81.7-36.7,81.7-81.7s-36.7-81.7-81.7-81.7Z"/>
</svg>