<?xml version="1.0" encoding="UTF-8"?>
<svg id="Layer_1" xmlns="http://www.w3.org/2000/svg" version="1.1" viewBox="0 0 800 800">
  <!-- Generator: Adobe Illustrator 29.8.2, SVG Export Plug-In . SVG Version: 2.1.1 Build 3)  -->
  <defs>
    <style>
      .st0 {
        stroke: #922e30;
        stroke-miterlimit: 10;
        stroke-width: 8px;
      }

      .st0, .st1 {
        fill: #922e30;
      }
    </style>
  </defs>
  <path class="st0" d="M170.3,717.8h459.4c6.3,0,11.5-5.1,11.5-11.5V93.7c0-6.3-5.1-11.5-11.5-11.5H170.3c-6.3,0-11.5,5.1-11.5,11.5v612.5c0,6.3,5.1,11.5,11.5,11.5h0ZM181.8,105.2h436.4v589.6h-62.6v-417.4c0-6.3-5.1-11.5-11.5-11.5H255.9c-6.3,0-11.5,5.1-11.5,11.5v417.4h-62.6V105.2h0ZM411.5,694.8v-406h121.1v406h-121.1,0ZM267.4,288.8h121.1v406h-121.1v-406Z"/>
  <path class="st1" d="M296.5,228.5h53.7c8.4,0,15.9-4.4,20.1-11.6,4.1-7.3,4.1-16-.1-23.2l-26.9-45.7c-4.2-7.1-11.6-11.4-19.9-11.4s-15.7,4.3-19.9,11.4l-26.9,45.7c-4.3,7.3-4.3,15.9-.1,23.2,4.1,7.3,11.7,11.6,20.1,11.6h-.1Z"/>
  <path class="st1" d="M456.6,217.1c4.2,7.1,11.6,11.4,19.9,11.4s15.8-4.3,19.9-11.4l26.9-45.7c4.3-7.3,4.3-15.9,0-23.2-4.1-7.3-11.7-11.6-20.1-11.6h-53.7c-8.4,0-15.9,4.4-20.1,11.6-4.1,7.3-4.1,16,.1,23.2l26.9,45.7h.1Z"/>
</svg>