<?xml version="1.0" encoding="UTF-8"?>
<svg id="Layer_1" xmlns="http://www.w3.org/2000/svg" version="1.1" viewBox="0 0 800 800">
  <!-- Generator: Adobe Illustrator 29.8.2, SVG Export Plug-In . SVG Version: 2.1.1 Build 3)  -->
  <defs>
    <style>
      .st0 {
        fill: #922e30;
        stroke: #922e30;
        stroke-linejoin: round;
        stroke-width: 15px;
      }
    </style>
  </defs>
  <path class="st0" d="M405,561.4h-106.8c-5.9-.2-10.5-5-10.5-10.8s4.6-10.7,10.5-10.8h106.8,0c15-.3,27-12.6,27-27.6s-12-27.3-27-27.6h-225.4c-6,0-10.8-4.9-10.8-10.8s4.9-10.8,10.8-10.8h225.4c27.3,0,49.3,22.1,49.3,49.3s-22.1,49.3-49.3,49.3h0Z"/>
  <path class="st0" d="M188.8,684.5c-1.9,3-5.3,5.1-9.2,5.1h0s-102.6,0-102.6,0c-6,0-10.8-4.8-10.8-10.8v-239.3c0-2.9,1.1-5.7,3.2-7.7s4.8-3.2,7.7-3.2h102.6c2.9,0,5.6,1.2,7.7,3.2,2,2,3.2,4.8,3.2,7.7v149c-.2,5.9-5,10.5-10.8,10.5s-10.7-4.6-10.8-10.5v-138.1h-80.9v217.6h80.8v-39c.2-5.8,5-10.5,10.9-10.5s10.6,4.6,10.8,10.5v49.8c0,2.1-.6,4.1-1.7,5.7"/>
  <path class="st0" d="M396.7,681.1c-3.2,0-6.4-.2-9.6-.6l-208.8-25.3c-6-.7-10.2-6.1-9.4-12.1.7-5.9,6.1-10.2,12.1-9.4l208.8,25.2c11.5,1.4,23.1-.7,33.3-6l280.5-144.8h0c11.7-6,16.8-20.1,11.7-32.2-5.2-12.1-18.8-18.3-31.2-14l-237,79.6h0c-5.7,1.9-11.8-1.2-13.7-6.8-1.9-5.7,1.1-11.8,6.8-13.7l237-79.6c23.2-7.8,48.6,3.6,58.1,26.2,9.6,22.6.1,48.7-21.7,59.9l-280.5,144.9c-11.2,5.8-23.7,8.8-36.3,8.9h0Z"/>
  <path class="st0" d="M387.8,298.8c-23.8,0-43-19.3-43.1-43.1v-12.9c0-23.8,19.3-43.1,43.1-43.1s43.1,19.3,43.1,43.1v12.9c0,23.8-19.3,43-43.1,43.1ZM387.8,221.5h0c-11.8,0-21.3,9.6-21.4,21.3v12.9c0,11.8,9.6,21.4,21.4,21.4s21.4-9.6,21.4-21.4v-12.9c0-11.8-9.6-21.3-21.4-21.3h0Z"/>
  <path class="st0" d="M521.9,424.7c-23.8,0-43-19.3-43.1-43.1v-12.9c0-23.8,19.3-43.1,43.1-43.1s43.1,19.3,43.1,43.1v12.9c0,23.8-19.3,43-43.1,43.1ZM521.9,347.3c-11.8,0-21.3,9.6-21.4,21.4v12.9c0,11.8,9.6,21.4,21.4,21.4s21.4-9.6,21.4-21.4v-12.9c0-11.8-9.6-21.4-21.4-21.4h0Z"/>
  <path class="st0" d="M353.2,424.7c-4.4,0-8.3-2.6-10-6.7-1.7-4.1-.8-8.7,2.3-11.8l203.3-203.2c2-2.2,4.8-3.4,7.8-3.5,3,0,5.8,1.1,7.9,3.2s3.2,5,3.2,7.9c0,3-1.3,5.8-3.5,7.8l-203.3,203.3c-2,2-4.8,3.1-7.6,3.1h0Z"/>
  <path class="st0" d="M291.3,435.7c-3.6,0-6.9-1.7-9-4.7-24.1-34.9-37-76.4-36.9-118.8,0-115.5,94-209.4,209.4-209.4s209.4,94,209.4,209.4c0,41-11.9,81.1-34.5,115.2-1.5,2.5-4,4.2-6.9,4.9-2.8.6-5.8,0-8.3-1.6s-4.1-4.1-4.7-7c-.6-2.9,0-5.9,1.7-8.2,20.2-30.7,31-66.6,30.9-103.3,0-103.5-84.2-187.8-187.7-187.8s-187.7,84.2-187.7,187.8c0,38,11.5,75.2,33.1,106.5,2.3,3.3,2.6,7.6.7,11.2s-5.6,5.8-9.6,5.8h0Z"/>
</svg>