<?xml version="1.0" encoding="UTF-8"?>
<svg id="Layer_1" xmlns="http://www.w3.org/2000/svg" version="1.1" viewBox="0 0 800 800">
  <!-- Generator: Adobe Illustrator 29.8.2, SVG Export Plug-In . SVG Version: 2.1.1 Build 3)  -->
  <defs>
    <style>
      .st0 {
        fill: #922e30;
        stroke: #922e30;
        stroke-linejoin: round;
        stroke-width: 18px;
      }
    </style>
  </defs>
  <path class="st0" d="M367.8,193.3c-39.2-33.4-78.4-66.8-117.6-100.2-3.6-3.1-8.9-3.1-12.5,0-39.2,33.4-78.4,66.8-117.6,100.2-6,5.1-8.4,10.4-8.4,18.3v151.1c0,13.3,10.7,24,24,24h216.4c13.3,0,24-10.7,24-24v-151.1c0-7.9-2.4-13.1-8.4-18.3h0ZM280,372.3h-68.4v-82.8h68.4v82.8ZM361.8,362.7c0,5.3-4.3,9.6-9.6,9.6h-57.8v-87.6c0-5.3-4.3-9.6-9.6-9.6h-78c-5.3,0-9.6,4.3-9.6,9.6v87.6h-61.5c-5.3,0-9.6-4.3-9.6-9.6v-151.1c0-3.1,1-5.3,3.4-7.3,38.1-32.5,76.3-65,114.4-97.6,38.1,32.5,76.3,65,114.5,97.6,2.4,2.1,3.4,4.2,3.4,7.3v151.1h0Z"/>
  <path class="st0" d="M523.8,515.9c-39.2-33.4-78.4-66.8-117.6-100.2-3.6-3.1-8.9-3.1-12.5,0-39.2,33.4-78.4,66.8-117.6,100.2-6,5.1-8.4,10.4-8.4,18.3v151.1c0,13.3,10.7,24,24,24h216.4c13.3,0,24-10.7,24-24v-151.1c0-7.9-2.4-13.1-8.4-18.3h0ZM436,694.8h-68.4v-82.8h68.4v82.8ZM517.8,685.2c0,5.3-4.3,9.6-9.6,9.6h-57.8v-87.6c0-5.3-4.3-9.6-9.6-9.6h-78c-5.3,0-9.6,4.3-9.6,9.6v87.6h-61.5c-5.3,0-9.6-4.3-9.6-9.6v-151.1c0-3.1,1-5.3,3.4-7.3,38.1-32.5,76.3-65,114.4-97.6,38.1,32.5,76.3,65,114.5,97.6,2.4,2.1,3.4,4.2,3.4,7.3v151.1h0Z"/>
  <path class="st0" d="M679.8,193.3c-39.2-33.4-78.4-66.8-117.6-100.2-3.6-3.1-8.9-3.1-12.5,0-39.2,33.4-78.4,66.8-117.6,100.2-6,5.1-8.4,10.4-8.4,18.3v151.1c0,13.3,10.7,24,24,24h216.4c13.3,0,24-10.7,24-24v-151.1c0-7.9-2.4-13.1-8.4-18.3h0ZM592,372.3h-68.4v-82.8h68.4v82.8ZM673.8,362.7c0,5.3-4.3,9.6-9.6,9.6h-57.8v-87.6c0-5.3-4.3-9.6-9.6-9.6h-78c-5.3,0-9.6,4.3-9.6,9.6v87.6h-61.5c-5.3,0-9.6-4.3-9.6-9.6v-151.1c0-3.1,1-5.3,3.4-7.3,38.1-32.5,76.3-65,114.4-97.6,38.1,32.5,76.3,65,114.5,97.6,2.4,2.1,3.4,4.2,3.4,7.3v151.1h0Z"/>
</svg>