<?xml version="1.0" encoding="UTF-8"?>
<svg id="Layer_1" xmlns="http://www.w3.org/2000/svg" version="1.1" viewBox="0 0 800 800">
  <!-- Generator: Adobe Illustrator 29.8.2, SVG Export Plug-In . SVG Version: 2.1.1 Build 3)  -->
  <defs>
    <style>
      .st0 {
        fill: #922e30;
        stroke: #922e30;
        stroke-miterlimit: 10;
        stroke-width: 16px;
      }
    </style>
  </defs>
  <g id="_x30_7_swastika">
    <g>
      <path class="st0" d="M400,595.8c-108,0-195.8-87.8-195.8-195.8s87.8-195.8,195.8-195.8,195.8,87.8,195.8,195.8-87.8,195.8-195.8,195.8ZM400,226.6c-95.7,0-173.4,77.8-173.4,173.4s77.8,173.4,173.4,173.4,173.4-77.8,173.4-173.4-77.8-173.4-173.4-173.4h0Z"/>
      <path class="st0" d="M214.5,349c-28.3-28.3-48.7-63.6-57.3-99.7-8.5-35-4.2-65,11.3-80.6,15.5-15.5,45.7-19.9,80.6-11.3,36.1,8.8,71.5,29.1,99.7,57.3l-15.8,15.8c-53.7-53.7-128.4-66.3-148.7-46s-7.7,95,46,148.7l-15.8,15.8Z"/>
      <path class="st0" d="M201.3,492.7c-69.6-9.8-128.5-52.3-128.5-92.7s58.9-82.9,128.5-92.7l3.1,22.1c-66.7,9.5-109.2,48.1-109.2,70.6s42.5,61.1,109.2,70.6l-3.1,22.1Z"/>
      <path class="st0" d="M215.7,647c-20.1,0-36.8-5.3-47.1-15.7-15.5-15.5-19.9-45.7-11.3-80.6,8.8-36.1,29.1-71.5,57.3-99.7l15.8,15.8c-53.7,53.7-66.3,128.4-46,148.7,6,6,16.9,9.1,30.5,9.1,32.3,0,80.4-17.5,118.2-55.2l15.8,15.8c-28.3,28.3-63.6,48.7-99.7,57.3-11.7,3.1-23.1,4.5-33.4,4.5h0Z"/>
      <path class="st0" d="M400,727.3c-40.4,0-82.9-58.9-92.7-128.5l22.1-3.1c9.4,66.7,48.1,109.2,70.6,109.2s61.1-42.5,70.6-109.2l22.1,3.1c-9.8,69.6-52.3,128.5-92.7,128.5h0Z"/>
      <path class="st0" d="M584.3,647c-10.3,0-21.7-1.4-33.6-4.3-36.1-8.8-71.5-29.1-99.7-57.3l15.8-15.8c53.7,53.7,128.4,66.3,148.7,46s7.7-95-46-148.7l15.8-15.8c28.3,28.3,48.7,63.6,57.3,99.7,8.5,35,4.2,65-11.3,80.6-10.2,10.3-26.9,15.7-47,15.7h0Z"/>
      <path class="st0" d="M329.4,204.3l-22.1-3.1c9.8-69.6,52.3-128.5,92.7-128.5s82.9,58.9,92.7,128.5l-22.1,3.1c-9.5-66.7-48.1-109.2-70.6-109.2s-61.1,42.5-70.6,109.2Z"/>
      <path class="st0" d="M598.7,492.7l-3.1-22.1c66.7-9.4,109.2-48.1,109.2-70.6s-42.5-61.1-109.2-70.6l3.1-22.1c69.6,9.8,128.5,52.3,128.5,92.7s-58.9,82.9-128.5,92.7Z"/>
      <path class="st0" d="M585.5,349l-15.8-15.8c53.7-53.7,66.3-128.4,46-148.7s-95-7.7-148.7,46l-15.8-15.8c28.3-28.3,63.6-48.7,99.7-57.3,35-8.5,65-4.2,80.6,11.3,15.5,15.5,19.9,45.7,11.3,80.6-8.8,36.1-29.2,71.5-57.3,99.7h0Z"/>
      <g>
        <g>
          <path class="st0" d="M399.7,500h-87.4c-5.5,0-10-4.5-10-10s4.5-10,10-10h77.4v-170c0-5.5,4.5-10,10-10h90.3c5.5,0,10,4.5,10,10s-4.5,10-10,10h-80.3v170c0,5.5-4.5,10-10,10h0Z"/>
          <path class="st0" d="M489.5,499.1c-5.5,0-10-4.5-10-10v-79.1h-169.5c-5.5,0-10-4.5-10-10v-89c0-5.5,4.5-10,10-10s10,4.5,10,10v79h169.5c5.5,0,10,4.5,10,10v89.1c0,5.5-4.5,10-10,10Z"/>
        </g>
        <g>
          <circle class="st0" cx="352.1" cy="445" r="8.4"/>
          <circle class="st0" cx="356.1" cy="354.1" r="8.4"/>
          <circle class="st0" cx="443.9" cy="446" r="8.4"/>
          <circle class="st0" cx="447.9" cy="356.1" r="8.4"/>
        </g>
      </g>
    </g>
  </g>
</svg>